<?xml version="1.0" encoding="UTF-8"?>
<svg id="Ebene_1" xmlns="http://www.w3.org/2000/svg" xmlns:xlink="http://www.w3.org/1999/xlink" version="1.1" viewBox="0 0 220 32.1">
  <!-- Generator: Adobe Illustrator 29.2.1, SVG Export Plug-In . SVG Version: 2.1.0 Build 116)  -->
  <path d="M17.7.6v11.9h-9.4V.6H0v31h8.3v-12h9.4v12h8.3V.6s-8.3,0-8.3,0ZM39.7,32c7.2,0,11.5-3.7,11.5-9.7s-1.9-6.9-6.7-8.9l-4.2-1.8c-2-.9-2.7-1.5-2.7-2.6s1.4-2.3,3.5-2.3c3.3,0,6,1.6,6.8,1.6s.4,0,.6-.2c.2-.1.3-.3.3-.5l1.9-5.3C47.7.7,44.3,0,40.9,0c-6.9,0-11.4,3.7-11.4,9.1s1.9,7,6.2,8.9l4.9,2.2c1.6.7,2.3,1.5,2.3,2.6,0,1.7-1.2,2.5-3.7,2.5-3.8,0-7.1-1.7-7.8-1.7s-.5.1-.6.2c-.2.1-.3.3-.4.5l-1.5,5.5c3.6,1.6,7.2,2.3,10.8,2.3ZM75.2,31.5v-6c0-.8-.3-1.1-1.1-1.1h-10.5V.6h-8.3v31h19.9ZM89.8,32c8.6,0,12.9-4.5,12.9-13.6V.6h-8.3v17.2c0,5.1-1.3,7-4.6,7s-4.6-1.9-4.6-7V.6h-8.3v17.9c0,9,4.2,13.6,12.9,13.5h0Z"/>
  <path d="M111.1,31.5h7.2c.3,0,.5-.1.5-.5v-1.4c0-.1,0-.1,0-.2,0,0,0-.1-.2-.1h-5.4v-11.2c0-.4,0-.5-.5-.5h-1.6c-.3,0-.5.2-.5.5v12.9c0,.4.2.5.6.5ZM123.7,31.8c1.2,0,2.3-.5,3.2-1.3v.6c0,.3.2.4.5.4h1.3c.4,0,.5-.2.5-.5v-8.9c0-.3-.2-.5-.5-.5h-1.5c-.3,0-.5.1-.5.5v6.5c-.7.6-1.5.9-2.4,1-1,0-1.5-.6-1.5-2v-5.6c0-.3,0-.5-.5-.5h-1.3c-.4,0-.5.2-.5.5v6c0,2.5,1,3.8,3.2,3.8h0ZM134,29.7l4.4-6.4c.1-.2.2-.4.2-.7v-.6c0-.2-.1-.4-.5-.4h-6.5c-.3,0-.4.2-.4.4v.9c0,.4.1.5.5.5h3.7l-4.3,6.4c-.2.2-.2.4-.2.7v.7c0,.1.1.1.1.2,0,0,.1.1.2.1h7.3s.1,0,.1-.1h.1v-1.4c0-.3-.2-.3-.4-.3h-4.3ZM144.7,31.8c1.2,0,2.4-.2,3.5-.6.1,0,.1-.1.2-.1,0,0,.1-.1.1-.2v-.4l-.3-1c-.1-.2-.2-.3-.5-.2-.8.3-1.6.5-2.5.5s-1.5-.2-2-.7-.9-1.2-.9-1.9h6c.5,0,.7-.1.7-.6v-.3c0-3-1.6-4.9-4.2-4.9s-5.1,2.1-5.1,5.2c0,3.2,1.8,5.2,5,5.2h0ZM142.2,25.5c0-.6.3-1.2.7-1.6s1-.7,1.6-.7.5.1.8.2c.2.1.5.3.6.4.2.2.3.4.4.7.1.2.1.5.1.8v.2h-4.2ZM151.3,31.5h1.5c.3,0,.5-.2.5-.5v-6.5c.2-.3.5-.5.9-.7.3-.2.7-.3,1.1-.3h.6c.3,0,.4,0,.4-.3l.2-1.5v-.2q0-.1-.1-.2c-.2-.1-.4-.2-.7-.1-.5,0-1,.1-1.4.4-.4.2-.8.6-1.1,1v-.6c0-.3-.2-.4-.5-.4h-1.4c-.4,0-.5.1-.5.5v8.9c0,.4,0,.5.5.5h0ZM158.3,31.5h1.5c.4,0,.5-.2.5-.5v-6.5c.6-.6,1.5-.9,2.3-1,1.1,0,1.6.6,1.6,2v5.5c0,.4.2.5.5.5h1.5c.3,0,.5-.2.5-.5v-6c0-2.4-1.1-3.6-3.2-3.6s-2.4.5-3.3,1.3v-.7c0-.3-.2-.4-.5-.4h-1.5c-.1,0-.1.1-.2.1,0,0-.1.1-.1.2v9.3c0,.1.1.1.1.2,0,0,.1.1.2.1-.1,0,0,0,0,0h0Z"/>
  <path d="M112.7,14.5c.3,0,.5-.1.5-.5v-5.6h5.7v5.6c0,.4.2.5.5.5h1.6c.3,0,.5-.1.5-.5V1c0-.4-.2-.5-.5-.5h-1.6c-.3,0-.5.1-.5.5v5.1h-5.7V1c0-.4-.2-.5-.5-.5h-1.6c-.3,0-.6.1-.6.5v13c0,.4.2.5.6.5h1.6ZM128.3,14.7c3,0,5-2.1,5-5.2s-1.8-5.2-4.9-5.2-5,2-5,5.2c0,3.3,1.9,5.3,4.9,5.2h0ZM128.3,12.8c-1.5,0-2.3-1.2-2.3-3.3s.9-3.2,2.4-3.2,2.3,1.1,2.3,3.2-.9,3.3-2.4,3.3ZM139.7,14.7c1,0,2-.2,3-.6.3-.1.3-.3.2-.6l-.3-1c-.1-.2-.2-.2-.4-.2-.7.3-1.4.5-2.1.5-1.7,0-2.7-1.2-2.7-3.3s1-3.2,2.8-3.2,1.3,0,2,.4c.2,0,.4,0,.5-.2l.3-1.1c.1-.3,0-.4-.2-.5-.9-.4-1.8-.6-2.7-.6-3.1,0-5.1,2.1-5.1,5.3-.2,3.2,1.6,5.1,4.7,5.1h0ZM145.1,14.5h1.6c.3,0,.4-.2.4-.5v-6.5c.7-.6,1.6-.9,2.5-1,1.2,0,1.5.8,1.5,2v5.5c0,.4.2.5.5.5h1.4c.4,0,.5-.1.5-.5v-6c0-2.2-.9-3.6-3.2-3.6s-2.3.4-3.2,1.2V1c0-.4-.2-.5-.5-.5h-1.3c-.3,0-.6.1-.6.5v13.2c0,.1.1.1.1.2,0,0,.1.1.2.1h.1ZM158.8,14.7c2.4,0,4-1.3,4-3.2s-.2-1.2-.5-1.6c-.3-.5-.8-.8-1.4-1l-1.9-.7c-.7-.3-1-.6-1-1.1s.5-.9,1.2-.9,1.6,0,2.3.5h.1q.1,0,.2,0s.1,0,.1,0h.1c0,0,.4-1.2.4-1.2.1-.3,0-.4-.2-.5-.9-.4-2-.6-3-.6-2.2,0-3.7,1.2-3.7,2.9s.2,1.2.6,1.7c.4.5.9.9,1.5,1l1.6.6c.9.3,1.2.7,1.2,1.2s-.6,1.1-1.6,1.1-1.7-.3-2.5-.6c-.2-.1-.4,0-.5.2l-.4,1.1h0v.2h.1c0,.1.1.2.1.2,1,.5,2.1.7,3.2.7h0ZM168.9,14.7c1,0,2-.2,3-.6.3-.1.3-.3.2-.6l-.3-1c-.1-.2-.2-.2-.4-.2-.7.3-1.4.5-2.1.5-1.7,0-2.7-1.2-2.7-3.3s1-3.2,2.8-3.2,1.4,0,2,.4c.2,0,.4,0,.5-.2l.3-1.1c.1-.3,0-.4-.2-.5-.9-.4-1.8-.6-2.7-.6-3.1,0-5.1,2.1-5.1,5.3,0,3.2,1.7,5.1,4.7,5.1h0ZM176,14.5c.3,0,.4-.2.4-.5v-6.5c.7-.6,1.6-.9,2.5-1,1.2,0,1.5.8,1.5,2v5.5c0,.4.2.5.5.5h1.4c.4,0,.5-.1.5-.5v-6c0-2.2-.9-3.6-3.2-3.6s-2.3.4-3.2,1.2V1c0-.4-.2-.5-.5-.5h-1.4c-.3,0-.5.1-.5.5v13.2c0,.1.1.1.1.2,0,0,.1.1.2.1h1.7ZM188.3,14.7c1.2,0,2.3-.5,3.2-1.3v.6c0,.3.2.4.5.4h1.3c.4,0,.5-.2.5-.5V5.1c0-.3-.2-.5-.5-.5h-1.3c-.3,0-.5,0-.5.5v6.5c-.7.6-1.5.9-2.4,1-1,0-1.5-.6-1.5-2v-5.5c0-.3-.1-.5-.5-.5h-1.4c-.4,0-.5.2-.5.5v6c-.1,2.4,1,3.7,3.1,3.6h0ZM196.8,14.5h1.6c.3,0,.4-.2.4-.5V1c0-.4-.2-.5-.5-.5h-1.4c-.3,0-.5.1-.5.5v13.2c0,.1.1.1.1.2,0,0,.1.1.2.1,0,0,0,0,0,0ZM205.9,14.7c1.2,0,2.4-.2,3.5-.6q.1,0,.2-.1h.1v-.5l-.3-1.1c-.1-.2-.2-.3-.5-.2-.8.3-1.6.5-2.5.5s-1.5-.2-2-.7-.9-1.2-.9-1.9h5.9c.5,0,.7-.1.7-.6v-.3c0-3-1.6-4.9-4.2-4.9s-5.1,2.1-5.1,5.2c0,3.3,1.9,5.3,5.1,5.2h0ZM203.4,8.5c0-.6.3-1.2.7-1.6s1-.7,1.6-.7.5,0,.8.2c.2,0,.5.3.6.4.2.2.3.4.4.7.1.2.1.5.1.8v.2h-4.2Z"/>
</svg>